<svg width="16" height="10" viewBox="0 0 16 10" fill="none" xmlns="http://www.w3.org/2000/svg">
<mask id="mask0_1_184" style="mask-type:alpha" maskUnits="userSpaceOnUse" x="-4" y="-7" width="24" height="24">
<rect x="-4" y="-7" width="24" height="24" fill="#D9D9D9"/>
</mask>
<g mask="url(#mask0_1_184)">
<path d="M7.0577 10C6.91603 10 6.79728 9.95202 6.70145 9.85605C6.60562 9.7601 6.5577 9.64119 6.5577 9.49932C6.5577 9.35748 6.60562 9.23879 6.70145 9.14328C6.79728 9.04776 6.91603 9 7.0577 9H8.92307C9.06474 9 9.18349 9.04798 9.27932 9.14395C9.37516 9.23992 9.42307 9.35883 9.42307 9.50068C9.42307 9.64254 9.37516 9.76123 9.27932 9.85673C9.18349 9.95224 9.06474 10 8.92307 10H7.0577ZM3.3077 5.5C3.16603 5.5 3.04728 5.45202 2.95145 5.35605C2.8556 5.2601 2.80768 5.14119 2.80768 4.99932C2.80768 4.85746 2.8556 4.73877 2.95145 4.64327C3.04728 4.54776 3.16603 4.5 3.3077 4.5H12.6731C12.8147 4.5 12.9335 4.54798 13.0293 4.64395C13.1252 4.7399 13.1731 4.85881 13.1731 5.00068C13.1731 5.14254 13.1252 5.26123 13.0293 5.35673C12.9335 5.45224 12.8147 5.5 12.6731 5.5H3.3077ZM0.5 1C0.358333 1 0.239583 0.952017 0.14375 0.85605C0.0479167 0.760083 0 0.641176 0 0.499326C0 0.357459 0.0479167 0.238775 0.14375 0.143275C0.239583 0.0477588 0.358333 0 0.5 0H15.5C15.6417 0 15.7604 0.0479832 15.8562 0.14395C15.9521 0.2399 16 0.358808 16 0.500674C16 0.642524 15.9521 0.761208 15.8562 0.856725C15.7604 0.952241 15.6417 1 15.5 1H0.5Z" fill="#484644"/>
</g>
</svg>
