<svg width="11" height="6" viewBox="0 0 11 6" fill="none" xmlns="http://www.w3.org/2000/svg">
<mask id="mask0_0_12" style="mask-type:alpha" maskUnits="userSpaceOnUse" x="-8" y="-10" width="27" height="27">
<rect x="-7.42343" y="-9.56059" width="25.8371" height="25.8371" fill="#D9D9D9"/>
</mask>
<g mask="url(#mask0_0_12)">
<path d="M5.49512 5.91271C5.37917 5.91271 5.27221 5.89374 5.17423 5.85579C5.07622 5.81782 4.9803 5.75192 4.88647 5.65808L0.162071 0.933687C0.0613244 0.83294 0.00749709 0.709416 0.000589258 0.563113C-0.00631858 0.416811 0.0475087 0.286378 0.162071 0.171816C0.276634 0.0572715 0.403612 0 0.543007 0C0.682401 0 0.80938 0.0572715 0.923942 0.171816L5.49512 4.74299L10.0663 0.171816C10.167 0.0710692 10.2906 0.0172419 10.4369 0.0103341C10.5832 0.0034442 10.7136 0.0572715 10.8282 0.171816C10.9427 0.286378 11 0.413357 11 0.552752C11 0.692164 10.9427 0.819143 10.8282 0.933687L6.10377 5.65808C6.00993 5.75192 5.91401 5.81782 5.81601 5.85579C5.71803 5.89374 5.61106 5.91271 5.49512 5.91271Z" fill="#484644"/>
</g>
</svg>
